# xmcd
# 
# Track frame offsets:
#   150
#   14969
#   33241
#   50154
#   67040
#   82888
#   99330
#   119195
#   137704
#   155511
#   170567
#   185908
# 
# Disc length: 2730 seconds
# 
# Revision: 5
# Processed by: cddbd v1.5.2PL0 Copyright (c) Steve Scherf et al.
# Submitted via: Synapstar 1.0 
# 
DISCID=b20aa80c
DTITLE=Various Artist - CB60447
DYEAR=2010
DGENRE=Country
TTITLE0=Emerson Drive - That Kind of Beautiful
TTITLE1=Danny Gokey - I Will Not Say Goodbye
TTITLE2=George Strait - The Breathe You Take
TTITLE3=Julianne Hough - Is That So Wrong
TTITLE4=Blaine Larson - Chillin'
TTITLE5=Katie Armiger - Leaving Home
TTITLE6=Mark Chesnutt - Lovin Her Was Easier (Than Anything I'll Ever Do Again)
TTITLE7=Darius Rucker - Come Back Song
TTITLE8=Steel Magnolia - Just By Being You (Halo and Wings)
TTITLE9=Frankie Ballard - Tell Me You Get Lonely
TTITLE10=Stealing Angels - He Better Be Dead
TTITLE11=Steve Azar - Sunshine (Everybody Needs A Little)
EXTD=
EXTT0=
EXTT1=
EXTT2=
EXTT3=
EXTT4=
EXTT5=
EXTT6=
EXTT7=
EXTT8=
EXTT9=
EXTT10=
EXTT11=
PLAYORDER=
